<svg id="Layer_2" data-name="Layer 2" xmlns="http://www.w3.org/2000/svg" viewBox="0 0 502.796 261.185">
  <defs>
    <style>
      .cls-1 {
        fill: #402e2a;
      }

      .cls-1,
      .cls-2 {
        stroke: #000;
        stroke-miterlimit: 10;
        stroke-width: 2px;
      }

      .cls-2 {
        fill: red;
      }
    </style>
  </defs>
  <title>Limit Logo old</title>
  <polygon class="cls-1"
    points="2.012 233.995 1.382 234.625 2.012 235.316 26.891 260.185 475.86 260.18 500.73 235.31 501.382 234.658 500.725 234 267.724 1 236.297 1 235.017 2.279 388.151 155.465 388.161 159.39 326.631 220.92 325.983 221.569 327.944 223.53 358.064 223.53 405.177 176.417 409.101 176.417 465.386 232.702 464.083 234.006 43.907 234.006 42.601 232.7 41.95 232.049 245.498 28.501 227.167 10.17 226.506 9.509 2.012 233.995" />
  <polygon class="cls-1"
    points="252.031 37.653 253.344 36.34 257.269 40.265 270.367 53.363 271.016 54.013 252.024 73.005 251.376 73.653 233.7 55.978 252.031 37.653" />
  <polygon class="cls-1"
    points="223.223 66.451 225.839 63.834 242.867 80.862 243.512 81.507 101.506 223.513 68.759 223.513 67.463 222.217 223.223 66.451" />
  <polygon class="cls-1"
    points="127.673 213.046 278.214 62.524 278.865 61.873 347.582 130.59 348.232 131.24 255.947 223.525 223.227 223.525 221.922 222.22 303.086 141.056 295.263 133.234 204.91 223.525 172.186 223.525 170.879 222.218 278.212 114.886 270.379 107.053 153.872 223.525 119.824 223.525 118.514 222.215 127.673 213.046" />
  <polygon class="cls-1"
    points="352.815 142.377 355.446 139.747 356.096 139.097 356.745 139.747 373.771 156.773 374.426 157.428 355.437 176.418 354.795 177.059 337.114 159.378 336.471 158.735 352.815 142.377" />
  <polygon class="cls-1"
    points="308.315 186.878 327.955 167.237 328.606 166.586 331.892 169.872 346.283 184.263 346.934 184.914 308.319 223.53 274.268 223.53 272.971 222.233 308.315 186.878" />
  <polygon class="cls-2"
    points="407.786 190.813 439.201 222.228 437.902 223.526 376.38 223.526 375.08 222.226 406.492 190.814 407.14 190.166 407.786 190.813" />
</svg>